<svg xmlns="http://www.w3.org/2000/svg" version="1.1" xmlns:xlink="http://www.w3.org/1999/xlink" xmlns:svgjs="http://svgjs.dev/svgjs" viewBox="0 0 6.542204912966977 1.6395980744650025"><g transform="matrix(1,0,0,1,1.6339383065167108,0.2857990372325012)"><rect width="6.542204912966977" height="6.542204912966977" x="-1.6339383065167108" y="-2.7371024564834885" fill="#3a868f"></rect><g><path d=" M 0.0555 0.8025 Q 0.0585 0.867 0.08925 0.9195000000000001 Q 0.12 0.9720000000000001 0.17325000000000002 1.00875 Q 0.2265 1.0455 0.2985 1.06575 Q 0.3705 1.086 0.456 1.086 Q 0.543 1.086 0.61275 1.0650000000000002 Q 0.6825 1.044 0.732 1.0050000000000001 Q 0.7815 0.9660000000000001 0.8085 0.9105000000000001 Q 0.8355 0.8550000000000001 0.8355 0.7875000000000001 Q 0.8355 0.6945000000000001 0.789 0.6352500000000001 Q 0.7425 0.5760000000000001 0.67275 0.53625 Q 0.603 0.49650000000000005 0.52125 0.46950000000000003 Q 0.4395 0.4425 0.36975 0.4125000000000001 Q 0.3 0.38250000000000006 0.2535 0.3435 Q 0.20700000000000002 0.3045 0.20700000000000002 0.24 Q 0.20700000000000002 0.20400000000000007 0.22275 0.1725 Q 0.23850000000000002 0.14100000000000001 0.26925 0.11775000000000002 Q 0.3 0.09450000000000003 0.34500000000000003 0.08025000000000004 Q 0.39 0.06600000000000006 0.4485 0.06600000000000006 Q 0.546 0.06600000000000006 0.61425 0.10725000000000007 Q 0.6825 0.14850000000000008 0.6945 0.237 L 0.7965 0.237 Q 0.7875 0.1815 0.756 0.1372500000000001 Q 0.7245 0.09300000000000008 0.6765 0.06225000000000014 Q 0.6285000000000001 0.031500000000000083 0.56775 0.01574999999999993 Q 0.507 0 0.441 0 Q 0.372 0 0.30975 0.018000000000000016 Q 0.2475 0.03600000000000003 0.20025 0.07050000000000001 Q 0.153 0.1050000000000001 0.12525 0.15750000000000008 Q 0.0975 0.21000000000000008 0.0975 0.2775000000000001 Q 0.0975 0.366 0.14250000000000002 0.42000000000000004 Q 0.1875 0.4740000000000001 0.25575000000000003 0.51 Q 0.324 0.546 0.4035 0.5715000000000001 Q 0.483 0.597 0.55125 0.6292500000000001 Q 0.6195 0.6615 0.6645 0.7080000000000001 Q 0.7095 0.7545000000000001 0.7095 0.8325 Q 0.7095 0.93 0.63825 0.9750000000000001 Q 0.5670000000000001 1.02 0.4485 1.02 Q 0.354 1.02 0.297 0.9952500000000001 Q 0.24 0.9705 0.21 0.936 Q 0.18 0.9015000000000001 0.1695 0.86475 Q 0.159 0.8280000000000001 0.1575 0.8025 L 0.0555 0.8025 M 1.1325 1.068 L 1.2690000000000001 1.068 L 1.2690000000000001 0.6990000000000001 L 1.4385 0.5175000000000001 L 1.8375 1.068 L 1.9935 1.068 L 1.5255 0.4245000000000001 L 1.9065 0.018000000000000016 L 1.8315000000000001 0.018000000000000016 L 1.2690000000000001 0.609 L 1.2690000000000001 0.018000000000000016 L 1.1325 0.018000000000000016 L 1.1325 1.068 M 2.2934985351562505 0.018000000000000016 L 2.2934985351562505 1.068 L 2.4299985351562503 1.068 L 2.4299985351562503 0.018000000000000016 L 2.2934985351562505 0.018000000000000016 M 2.7300146484375003 0.018000000000000016 L 3.1695146484375005 1.068 L 3.2595146484375004 1.068 L 3.6855146484375005 0.018000000000000016 L 3.6075146484375002 0.018000000000000016 L 3.2580146484375003 0.8820000000000001 L 3.2520146484375005 0.8820000000000001 L 2.8920146484375002 0.018000000000000016 L 2.7300146484375003 0.018000000000000016 M 3.9255468750000007 0.018000000000000016 L 3.9255468750000007 1.068 L 4.603546875 1.068 L 4.603546875 0.9855 L 4.062046875 0.9855 L 4.062046875 0.546 L 4.527046875000001 0.546 L 4.527046875000001 0.4770000000000001 L 4.062046875 0.4770000000000001 L 4.062046875 0.10050000000000003 L 4.603546875 0.10050000000000003 L 4.603546875 0.018000000000000016 L 3.9255468750000007 0.018000000000000016" fill="#ffffff" fill-rule="nonzero"></path></g><g></g><g clip-path="url(#SvgjsClipPath1006)"><g clip-path="url(#SvgjsClipPath1000e8fd4fb9-964f-4cb9-8fdf-f8ad5d1138d3)"><path d=" M -0.6513317977753836 0.41343068282910633 C -0.6540627157063812 0.4134305626694256 -0.6567454884714227 0.41271157956839466 -0.6591104633993125 0.41134600044189323 L -0.8948818184605889 0.2752193520231426 C -0.8996951512223306 0.27244037305984303 -0.9026603428903168 0.26730466109089085 -0.9026604840845174 0.26174670316249826 L -0.9026604840845174 -0.01050659367500367 C -0.902660342890313 -0.016064551603406883 -0.8996951512223232 -0.021200263572357003 -0.8948818184605797 -0.023979242535653304 C -0.8900683634210131 -0.02675829209847924 -0.8841379422523075 -0.02675829209847924 -0.8793244872127317 -0.023979242535648024 L -0.643553132151455 0.11214740588310293 C -0.6387397993897134 0.11492638484640258 -0.6357746077217272 0.12006209681535465 -0.6357744665275266 0.12562005474374735 L -0.6357744665275266 0.3978733515812492 C -0.6357746077217309 0.40343130950965245 -0.6387397993897207 0.40856702147860263 -0.6435531321514643 0.4113460004418989 C -0.6459174839424715 0.4127130831168093 -0.6486006675695539 0.4134321763288673 -0.6513317977753836 0.41343068282910633 Z M -0.871545821588803 0.25276390009998545 L -0.666889129023241 0.3709280538599603 L -0.666889129023241 0.13460285780626002 L -0.871545821588803 0.01643870404628508 Z" fill="#ffffff" transform="matrix(1,0,0,1,0,0)" fill-rule="nonzero"></path></g><g clip-path="url(#SvgjsClipPath1000e8fd4fb9-964f-4cb9-8fdf-f8ad5d1138d3)"><path d=" M -0.8871031528366603 0.8218106280853591 C -0.8898342250981004 0.8218116807405726 -0.8925172963896706 0.8210926176344319 -0.8948818184605889 0.8197259456981459 L -1.1306531735218652 0.6835992972793954 C -1.1354665062836071 0.6808203183160956 -1.1384316979515934 0.6756846063471436 -1.138431839145794 0.670126648418751 C -1.1384316979516138 0.6645686904904159 -1.1354665062836466 0.6594329785214528 -1.1306531735219152 0.6566539995581355 L -0.6668891290232408 0.3888905485187363 L -0.6668891290232408 0.12562005474374727 C -0.6668889878290365 0.12006209681534394 -0.6639237961610467 0.11492638484639378 -0.6591104633993029 0.11214740588309746 C -0.6542970083597364 0.10936835632027159 -0.6483665871910306 0.10936835632027159 -0.6435531321514549 0.11214740588310282 L -0.40778177709017827 0.24827405430185373 C -0.40296844432843637 0.2510530332651533 -0.4000032526604502 0.25618874523410545 -0.40000311146624956 0.2617467031624981 L -0.40000311146624956 0.534 C -0.4000032526604297 0.539557957928335 -0.40296844432839696 0.5446936698972983 -0.4077817770901284 0.5474726488606154 L -0.8793244872127315 0.8197259456981462 C -0.8816890092836498 0.8210926176344319 -0.88437208057522 0.8218116807405726 -0.8871031528366603 0.821810628085359 Z M -1.0917598454022224 0.670126648418751 L -0.8871031528366603 0.7882908021787258 L -0.43111777396196427 0.525017196937487 L -0.43111777396196427 0.2707295062250109 L -0.6357744665275266 0.15256535246503597 L -0.6357744665275266 0.3978733515812492 C -0.6357746077217067 0.4034313095095843 -0.638739799389674 0.4085670214785474 -0.6435531321514054 0.41134600044186465 Z M -0.6513317977753835 0.3978733515812492 L -0.6513317977753835 0.3978733515812492 Z" fill="#ffffff" transform="matrix(1,0,0,1,0,0)" fill-rule="nonzero"></path></g><g clip-path="url(#SvgjsClipPath1000e8fd4fb9-964f-4cb9-8fdf-f8ad5d1138d3)"><path d=" M -1.3586458629592133 0.5495573312478573 C -1.3613769931650432 0.5495588247476181 -1.3640601767921254 0.5488397315355601 -1.366424528583142 0.5474726488606444 C -1.371237861344884 0.5446936698973448 -1.37420305301287 0.5395579579283926 -1.3742031942070705 0.534 L -1.3742031942070705 0.26174670316249815 C -1.3742030530128664 0.25618874523409485 -1.3712378613448766 0.25105303326514466 -1.3664245285831325 0.24827405430184835 L -0.8948818184605887 -0.02397924253564807 C -0.8900683634210129 -0.026758292098479283 -0.8841379422523072 -0.026758292098479283 -0.8793244872127315 -0.02397924253564807 C -0.8745111544509896 -0.021200263572348436 -0.8715459627830037 -0.016064551603396284 -0.871545821588803 -0.01050659367500367 L -0.871545821588803 0.26174670316249815 C -0.8715459627830073 0.2673046610909015 -0.8745111544509971 0.2724403730598517 -0.8793244872127408 0.27521935202314796 L -1.3508671973352848 0.5474726488606445 C -1.3532321722631744 0.5488382279871457 -1.3559149450282157 0.5495572110881767 -1.3586458629592133 0.5495573312478573 Z M -1.3430885317113561 0.2707295062250109 L -1.3430885317113561 0.5070547022787112 L -0.9026604840845174 0.25276390009998545 L -0.9026604840845174 0.01643870404628508 Z M -0.8871031528366603 0.26174670316249815 L -0.8871031528366603 0.26174670316249815 Z" fill="#ffffff" transform="matrix(1,0,0,1,0,0)" fill-rule="nonzero"></path></g><g clip-path="url(#SvgjsClipPath1000e8fd4fb9-964f-4cb9-8fdf-f8ad5d1138d3)"><path d=" M -0.8871031528366603 1.094063924922861 C -0.8898340707676577 1.0940638047631803 -0.8925168435326991 1.0933448216621493 -0.8948818184605889 1.091979242535648 C -0.8996951512223306 1.0892002635723483 -0.9026603428903168 1.0840645516033962 -0.9026604840845174 1.0785065936750038 L -0.9026604840845174 0.8062532968375018 C -0.9026603428903373 0.8006953389091668 -0.8996951512223701 0.7955596269402038 -0.8948818184606385 0.7927806479768864 L -0.4233391083380357 0.5205273511393557 C -0.4185256532984599 0.5177483015765246 -0.41259523212975413 0.5177483015765246 -0.4077817770901785 0.5205273511393557 C -0.4029684443284366 0.5233063301026554 -0.40000325266045045 0.5284420420716075 -0.4000031114662497 0.534 L -0.4000031114662497 0.8062532968375018 C -0.4000032526604298 0.8118112547658369 -0.4029684443283972 0.8169469667348 -0.40778177709012864 0.8197259456981174 L -0.8793244872127317 1.091979242535648 C -0.8816894621406213 1.0933448216621493 -0.8843722349056627 1.0940638047631803 -0.8871031528366603 1.094063924922861 Z M -0.871545821588803 0.8152360999000148 L -0.871545821588803 1.0515612959537148 L -0.43111777396196427 0.7972704937749889 L -0.43111777396196427 0.5609452977212889 Z" fill="#ffffff" transform="matrix(1,0,0,1,0,0)" fill-rule="nonzero"></path></g><g clip-path="url(#SvgjsClipPath1000e8fd4fb9-964f-4cb9-8fdf-f8ad5d1138d3)"><path d=" M -1.1228745078979367 0.9579372765041101 C -1.1256054258289343 0.9579371563444294 -1.1282881985939759 0.9572181732433983 -1.1306531735218652 0.9558525941168972 L -1.366424528583142 0.8197259456981462 C -1.371237861344884 0.8169469667348466 -1.37420305301287 0.8118112547658946 -1.3742031942070705 0.8062532968375018 L -1.3742031942070705 0.534 C -1.3742030530128904 0.5284420420716649 -1.3712378613449232 0.523306330102702 -1.3664245285831917 0.5205273511393845 L -0.8948818184605887 0.24827405430185384 C -0.8900683634210129 0.24549500473902258 -0.8841379422523072 0.24549500473902258 -0.8793244872127315 0.24827405430185384 L -0.6435531321514547 0.38440070272060484 C -0.638739799389713 0.38717968168390443 -0.6357746077217267 0.3923153936528565 -0.6357744665275261 0.3978733515812492 C -0.6357746077217306 0.40343130950965245 -0.6387397993897203 0.40856702147860263 -0.6435531321514639 0.4113460004418989 L -1.1073171766500791 0.6791094514812639 L -1.1073171766500791 0.9423799452562528 C -1.1073173178442595 0.9479379031845879 -1.1102825095122264 0.953073615153551 -1.1150958422739579 0.9558525941168683 C -1.1174608172018974 0.9572181732433983 -1.1201435899669387 0.9579371563444294 -1.1228745078979363 0.9579372765041101 Z M -1.3430885317113561 0.797270493774989 L -1.138431839145794 0.915434647534964 L -1.138431839145794 0.670126648418751 C -1.1384316979516138 0.6645686904904159 -1.1354665062836466 0.6594329785214528 -1.1306531735219152 0.6566539995581355 L -0.682446460271098 0.3978733515812492 L -0.8871031528366603 0.2797091978212741 L -1.3430885317113561 0.5429828030625128 Z" fill="#ffffff" transform="matrix(1,0,0,1,0,0)" fill-rule="nonzero"></path></g><g clip-path="url(#SvgjsClipPath1000e8fd4fb9-964f-4cb9-8fdf-f8ad5d1138d3)"><path d=" M -0.8871031528366603 1.094063924922861 C -0.8898340707676577 1.0940638047631803 -0.8925168435326991 1.0933448216621493 -0.8948818184605889 1.091979242535648 L -1.1306531735218652 0.9558525941168972 C -1.1354665062836071 0.9530736151535976 -1.1384316979515934 0.9479379031846453 -1.138431839145794 0.9423799452562528 L -1.138431839145794 0.670126648418751 C -1.1384316979516138 0.6645686904904159 -1.1354665062836466 0.6594329785214528 -1.1306531735219152 0.6566539995581355 C -1.1258397184822897 0.6538749499952754 -1.1199092973135842 0.6538749499952754 -1.115095842274008 0.6566539995581067 L -0.8793244872127317 0.7927806479768577 C -0.8745111544509898 0.7955596269401572 -0.8715459627830037 0.8006953389091093 -0.871545821588803 0.8062532968375018 L -0.871545821588803 1.0785065936750038 C -0.8715459627829831 1.084064551603339 -0.8745111544509503 1.089200263572302 -0.8793244872126819 1.0919792425356192 C -0.8816894621406213 1.0933448216621493 -0.8843722349056627 1.0940638047631803 -0.8871031528366603 1.094063924922861 Z M -1.1073171766500796 0.93339714219374 L -0.9026604840845174 1.0515612959537148 L -0.9026604840845174 0.8152360999000148 L -1.1073171766500796 0.6970719461400399 Z" fill="#ffffff" transform="matrix(1,0,0,1,0,0)" fill-rule="nonzero"></path></g></g></g><defs><clipPath id="SvgjsClipPath1006"><path d=" M -1.3742031942070705 -0.026063924922860915 h 0.9742031942070704 v 1.120127849845722 h -0.9742031942070704 Z"></path></clipPath><clipPath id="SvgjsClipPath1000e8fd4fb9-964f-4cb9-8fdf-f8ad5d1138d3"><path d=" M -1.3742031942070705 -0.026063924922860915 L -0.40000000000000013 -0.026063924922860915 L -0.40000000000000013 1.094063924922861 L -1.3742031942070707 1.094063924922861 Z"></path></clipPath></defs></svg>