<svg xmlns="http://www.w3.org/2000/svg" version="1.1" xmlns:xlink="http://www.w3.org/1999/xlink" xmlns:svgjs="http://svgjs.dev/svgjs" viewBox="0 0 5.647015281443363 6.360230151520553"><g transform="matrix(1,0,0,1,0.49924189365136895,4.774988257869184)"><rect width="6.360230151520553" height="6.360230151520553" x="-0.8558493286899638" y="-4.774988257869184" fill="#ffffff"></rect><g><path d=" M 0.0555 0.8025 Q 0.0585 0.867 0.08925 0.9195000000000001 Q 0.12 0.9720000000000001 0.17325000000000002 1.00875 Q 0.2265 1.0455 0.2985 1.06575 Q 0.3705 1.086 0.456 1.086 Q 0.543 1.086 0.61275 1.0650000000000002 Q 0.6825 1.044 0.732 1.0050000000000001 Q 0.7815 0.9660000000000001 0.8085 0.9105000000000001 Q 0.8355 0.8550000000000001 0.8355 0.7875000000000001 Q 0.8355 0.6945000000000001 0.789 0.6352500000000001 Q 0.7425 0.5760000000000001 0.67275 0.53625 Q 0.603 0.49650000000000005 0.52125 0.46950000000000003 Q 0.4395 0.4425 0.36975 0.4125000000000001 Q 0.3 0.38250000000000006 0.2535 0.3435 Q 0.20700000000000002 0.3045 0.20700000000000002 0.24 Q 0.20700000000000002 0.20400000000000007 0.22275 0.1725 Q 0.23850000000000002 0.14100000000000001 0.26925 0.11775000000000002 Q 0.3 0.09450000000000003 0.34500000000000003 0.08025000000000004 Q 0.39 0.06600000000000006 0.4485 0.06600000000000006 Q 0.546 0.06600000000000006 0.61425 0.10725000000000007 Q 0.6825 0.14850000000000008 0.6945 0.237 L 0.7965 0.237 Q 0.7875 0.1815 0.756 0.1372500000000001 Q 0.7245 0.09300000000000008 0.6765 0.06225000000000014 Q 0.6285000000000001 0.031500000000000083 0.56775 0.01574999999999993 Q 0.507 0 0.441 0 Q 0.372 0 0.30975 0.018000000000000016 Q 0.2475 0.03600000000000003 0.20025 0.07050000000000001 Q 0.153 0.1050000000000001 0.12525 0.15750000000000008 Q 0.0975 0.21000000000000008 0.0975 0.2775000000000001 Q 0.0975 0.366 0.14250000000000002 0.42000000000000004 Q 0.1875 0.4740000000000001 0.25575000000000003 0.51 Q 0.324 0.546 0.4035 0.5715000000000001 Q 0.483 0.597 0.55125 0.6292500000000001 Q 0.6195 0.6615 0.6645 0.7080000000000001 Q 0.7095 0.7545000000000001 0.7095 0.8325 Q 0.7095 0.93 0.63825 0.9750000000000001 Q 0.5670000000000001 1.02 0.4485 1.02 Q 0.354 1.02 0.297 0.9952500000000001 Q 0.24 0.9705 0.21 0.936 Q 0.18 0.9015000000000001 0.1695 0.86475 Q 0.159 0.8280000000000001 0.1575 0.8025 L 0.0555 0.8025 M 1.1325 1.068 L 1.2690000000000001 1.068 L 1.2690000000000001 0.6990000000000001 L 1.4385 0.5175000000000001 L 1.8375 1.068 L 1.9935 1.068 L 1.5255 0.4245000000000001 L 1.9065 0.018000000000000016 L 1.8315000000000001 0.018000000000000016 L 1.2690000000000001 0.609 L 1.2690000000000001 0.018000000000000016 L 1.1325 0.018000000000000016 L 1.1325 1.068 M 2.2934985351562505 0.018000000000000016 L 2.2934985351562505 1.068 L 2.4299985351562503 1.068 L 2.4299985351562503 0.018000000000000016 L 2.2934985351562505 0.018000000000000016 M 2.7300146484375003 0.018000000000000016 L 3.1695146484375005 1.068 L 3.2595146484375004 1.068 L 3.6855146484375005 0.018000000000000016 L 3.6075146484375002 0.018000000000000016 L 3.2580146484375003 0.8820000000000001 L 3.2520146484375005 0.8820000000000001 L 2.8920146484375002 0.018000000000000016 L 2.7300146484375003 0.018000000000000016 M 3.9255468750000007 0.018000000000000016 L 3.9255468750000007 1.068 L 4.603546875 1.068 L 4.603546875 0.9855 L 4.062046875 0.9855 L 4.062046875 0.546 L 4.527046875000001 0.546 L 4.527046875000001 0.4770000000000001 L 4.062046875 0.4770000000000001 L 4.062046875 0.10050000000000003 L 4.603546875 0.10050000000000003 L 4.603546875 0.018000000000000016 L 3.9255468750000007 0.018000000000000016" fill="#173054" fill-rule="nonzero"></path></g><g></g><g clip-path="url(#SvgjsClipPath1002)"><g clip-path="url(#SvgjsClipPath100059e6a44e-b8fd-49ac-af28-7638a423dff9)"><path d=" M 3.1716238522798204 -2.6962000477017973 C 3.161808916481907 -2.6962004795564267 3.152167014705805 -2.6987845092324214 3.1436672803060848 -2.7036924089907592 L 2.2963035837821826 -3.192932418531117 C 2.2790044363071678 -3.2029200859739744 2.2683475192612708 -3.221377866297467 2.268347011808448 -3.241353201189626 L 2.268347011808448 -4.2198332202703455 C 2.268347519261285 -4.239808555162542 2.2790044363071944 -4.258266335486028 2.2963035837822154 -4.268254002928873 C 2.313603170724483 -4.27824192410686 2.334917140787352 -4.27824192410686 2.352216727729652 -4.268254002928854 L 3.199580424253555 -3.7790139933884945 C 3.216879571728569 -3.7690263259456374 3.227536488774466 -3.7505685456221447 3.2275369962272897 -3.7305932107299853 L 3.2275369962272897 -2.7521131916492667 C 3.2275364887744526 -2.7321378567570695 3.216879571728543 -2.7136800764335836 3.199580424253522 -2.7036924089907384 C 3.1910829294115803 -2.6987791054701953 3.1814395509947824 -2.696194680054494 3.1716238522798204 -2.6962000477017973 Z M 2.3801732997033875 -3.2736374505048955 L 3.11571070833235 -2.8489547569662843 L 3.11571070833235 -3.6983089614147167 L 2.3801732997033875 -4.122991654953328 Z" fill="#225777" transform="matrix(1,0,0,1,0,0)" fill-rule="nonzero"></path></g><g clip-path="url(#SvgjsClipPath100059e6a44e-b8fd-49ac-af28-7638a423dff9)"><path d=" M 2.3242601557559173 -1.228480019080719 C 2.314444665293446 -1.2284762358314238 2.3048016906111695 -1.231060553046274 2.2963035837821826 -1.235972380369681 L 1.4489398872582806 -1.7252123899100393 C 1.4316407397832653 -1.7352000573528965 1.420983822737369 -1.7536578376763892 1.4209833152845461 -1.7736331725685477 C 1.4209838227372955 -1.7936085074605002 1.4316407397831235 -1.8120662877840328 1.4489398872581014 -1.8220539552269526 L 3.115710708332351 -2.7843974409645362 L 3.115710708332351 -3.7305932107299857 C 3.115711215785187 -3.7505685456221833 3.1263681328310966 -3.769026325945669 3.1436672803061194 -3.779013993388514 C 3.160966867248386 -3.789001914566501 3.1822808373112554 -3.789001914566501 3.199580424253555 -3.7790139933884945 L 4.046944120777458 -3.2897739838481352 C 4.064243268252473 -3.2797863164052785 4.07490018529837 -3.261328536081786 4.074900692751194 -3.241353201189627 L 4.074900692751194 -2.2628731821089074 C 4.074900185298444 -2.2428978472169554 4.064243268252615 -2.2244400668934228 4.0469441207776375 -2.214452399450503 L 2.352216727729653 -1.23597238036968 C 2.343718620900666 -1.231060553046274 2.3340756462183894 -1.2284762358314238 2.3242601557559173 -1.2284800190807195 Z M 1.588722747126954 -1.7736331725685477 L 2.3242601557559173 -1.3489504790299374 L 3.963074404856253 -2.295157431424177 L 3.963074404856253 -3.2090689518743574 L 3.2275369962272897 -3.6337516454129686 L 3.2275369962272897 -2.7521131916492667 C 3.2275364887745397 -2.7321378567573147 3.216879571728711 -2.713680076433782 3.1995804242537336 -2.703692408990862 Z M 3.1716238522798204 -2.7521131916492667 L 3.1716238522798204 -2.7521131916492667 Z" fill="#225777" transform="matrix(1,0,0,1,0,0)" fill-rule="nonzero"></path></g><g clip-path="url(#SvgjsClipPath100059e6a44e-b8fd-49ac-af28-7638a423dff9)"><path d=" M 0.6295327627081126 -2.2069600381614376 C 0.6197170639931493 -2.206954670514135 0.6100736855763528 -2.2095390959298364 0.601576190734378 -2.214452399450399 C 0.5842770432593627 -2.2244400668932554 0.5736201262134663 -2.242897847216749 0.5736196187606433 -2.2628731821089074 L 0.5736196187606433 -3.2413532011896264 C 0.5736201262134787 -3.261328536081824 0.5842770432593888 -3.2797863164053096 0.6015761907344115 -3.2897739838481543 L 2.2963035837821835 -4.268254002928854 C 2.3136031707244835 -4.278241924106861 2.3349171407873524 -4.278241924106861 2.352216727729653 -4.268254002928854 C 2.3695158752046677 -4.258266335485997 2.3801727922505638 -4.239808555162504 2.3801732997033875 -4.2198332202703455 L 2.3801732997033875 -3.2413532011896264 C 2.3801727922505505 -3.221377866297429 2.369515875204641 -3.2029200859739433 2.352216727729619 -3.192932418531098 L 0.6574893346818472 -2.214452399450398 C 0.6489896002821277 -2.209544499692062 0.639347698506026 -2.2069604700160674 0.6295327627081126 -2.2069600381614376 Z M 0.6854459066555819 -3.2090689518743574 L 0.6854459066555819 -2.3597147474259255 L 2.268347011808448 -3.2736374505048955 L 2.268347011808448 -4.122991654953328 Z M 2.3242601557559173 -3.2413532011896264 L 2.3242601557559173 -3.2413532011896264 Z" fill="#225777" transform="matrix(1,0,0,1,0,0)" fill-rule="nonzero"></path></g><g clip-path="url(#SvgjsClipPath100059e6a44e-b8fd-49ac-af28-7638a423dff9)"><path d=" M 2.3242601557559173 -0.25 C 2.314445219958004 -0.2500004318546294 2.3048033181819028 -0.25258446153062497 2.2963035837821826 -0.2574923612889606 C 2.2790044363071678 -0.26748002873181775 2.2683475192612708 -0.28593780905531085 2.268347011808448 -0.3059131439474694 L 2.268347011808448 -1.2843931630281888 C 2.268347519261198 -1.3043684979201409 2.2790044363070265 -1.322826278243673 2.296303583782004 -1.3328139456865937 L 3.991030976829988 -2.311293964767416 C 4.008330563772288 -2.321281885945422 4.029644533835158 -2.321281885945422 4.046944120777457 -2.311293964767416 C 4.064243268252473 -2.301306297324559 4.074900185298369 -2.2828485170010664 4.074900692751193 -2.2628731821089074 L 4.074900692751193 -1.2843931630281888 C 4.074900185298443 -1.2644178281362368 4.064243268252614 -1.2459600478127042 4.046944120777637 -1.2359723803697835 L 2.352216727729652 -0.2574923612889606 C 2.3437169933299327 -0.25258446153062497 2.3340750915538306 -0.2500004318546294 2.3242601557559173 -0.25 Z M 2.3801732997033875 -1.2521089137129193 L 2.3801732997033875 -0.4027547092644874 L 3.963074404856253 -1.3166774123434584 L 3.963074404856253 -2.16603161679189 Z" fill="#225777" transform="matrix(1,0,0,1,0,0)" fill-rule="nonzero"></path></g><g clip-path="url(#SvgjsClipPath100059e6a44e-b8fd-49ac-af28-7638a423dff9)"><path d=" M 1.4768964592320153 -0.7392400095403593 C 1.4670815234341017 -0.7392404413949891 1.4574396216580001 -0.7418244710709843 1.4489398872582806 -0.7467323708293208 L 0.601576190734378 -1.23597238036968 C 0.5842770432593627 -1.2459600478125368 0.5736201262134663 -1.2644178281360299 0.5736196187606433 -1.2843931630281888 L 0.5736196187606433 -2.2628731821089074 C 0.5736201262133929 -2.2828485170008594 0.5842770432592209 -2.3013062973243916 0.6015761907341988 -2.3112939647673123 L 2.2963035837821835 -3.289773983848135 C 2.3136031707244835 -3.2997619050261413 2.3349171407873524 -3.2997619050261413 2.352216727729653 -3.289773983848135 L 3.199580424253556 -2.8005339743077755 C 3.2168795717285708 -2.7905463068649183 3.2275364887744677 -2.7720885265414257 3.2275369962272906 -2.7521131916492667 C 3.2275364887744544 -2.7321378567570695 3.216879571728544 -2.7136800764335836 3.199580424253523 -2.7036924089907384 L 1.5328096031794858 -1.7413489232532782 L 1.5328096031794858 -0.7951531534878291 C 1.5328090957267362 -0.7751778185958771 1.5221521786809082 -0.7567200382723445 1.5048530312059303 -0.7467323708294242 C 1.4963532968060318 -0.7418244710709843 1.48671139502993 -0.7392404413949891 1.4768964592320164 -0.7392400095403593 Z M 0.6854459066555819 -1.316677412343458 L 1.4209833152845461 -0.8919947188048472 L 1.4209833152845461 -1.7736331725685477 C 1.4209838227372955 -1.7936085074605002 1.4316407397831235 -1.8120662877840328 1.4489398872581014 -1.8220539552269526 L 3.0597975643848816 -2.7521131916492667 L 2.3242601557559173 -3.176795885187878 L 0.6854459066555819 -2.230588932793639 Z" fill="#225777" transform="matrix(1,0,0,1,0,0)" fill-rule="nonzero"></path></g><g clip-path="url(#SvgjsClipPath100059e6a44e-b8fd-49ac-af28-7638a423dff9)"><path d=" M 2.3242601557559173 -0.25 C 2.314445219958004 -0.2500004318546294 2.3048033181819028 -0.25258446153062497 2.2963035837821826 -0.2574923612889606 L 1.4489398872582806 -0.7467323708293208 C 1.4316407397832653 -0.756720038272177 1.420983822737369 -0.7751778185956706 1.4209833152845461 -0.7951531534878291 L 1.4209833152845461 -1.7736331725685477 C 1.4209838227372955 -1.7936085074605002 1.4316407397831235 -1.8120662877840328 1.4489398872581014 -1.8220539552269526 C 1.4662394742005809 -1.832041876405063 1.4875534442634486 -1.832041876405063 1.50485303120575 -1.8220539552270565 L 2.352216727729652 -1.3328139456866968 C 2.369515875204667 -1.32282627824384 2.3801727922505638 -1.3043684979203474 2.3801732997033875 -1.2843931630281888 L 2.3801732997033875 -0.3059131439474694 C 2.3801727922506375 -0.28593780905551736 2.369515875204809 -0.2674800287319856 2.3522167277298314 -0.2574923612890645 C 2.3437169933299327 -0.25258446153062497 2.3340750915538306 -0.2500004318546294 2.3242601557559173 -0.25 Z M 1.5328096031794847 -0.8274374028030982 L 2.268347011808448 -0.4027547092644874 L 2.268347011808448 -1.2521089137129193 L 1.5328096031794847 -1.67679160725153 Z" fill="#225777" transform="matrix(1,0,0,1,0,0)" fill-rule="nonzero"></path></g></g></g><defs><clipPath id="SvgjsClipPath1002"><path d=" M 0.5736196187606433 -4.275746364217815 h 3.501292256619339 v 4.025746364217815 h -3.501292256619339 Z"></path></clipPath><clipPath id="SvgjsClipPath100059e6a44e-b8fd-49ac-af28-7638a423dff9"><path d=" M 0.5736196187606429 -4.275746364217815 L 4.074911875379982 -4.275746364217815 L 4.074911875379982 -0.25 L 0.5736196187606426 -0.25 Z"></path></clipPath></defs></svg>